<?xml version="1.0" encoding="UTF-8"?>
<svg xmlns="http://www.w3.org/2000/svg" xmlns:xlink="http://www.w3.org/1999/xlink" width="94.5pt" height="46.5pt" viewBox="0 0 94.5 46.5" version="1.1">
<g id="surface1">
<rect x="0" y="0" width="94.5" height="46.5" style="fill:rgb(100%,100%,100%);fill-opacity:1;stroke:none;"/>
<path style=" stroke:none;fill-rule:nonzero;fill:rgb(4.998779%,4.998779%,4.998779%);fill-opacity:1;" d="M 16.664063 22.578125 L 21.496094 16.46875 L 17.96875 16.46875 L 14.183594 21.503906 L 13.109375 21.503906 L 13.109375 12.09375 L 10.140625 12.09375 L 10.140625 29.101563 L 13.109375 29.101563 L 13.109375 23.910156 L 14.207031 23.910156 L 18.09375 29.101563 L 21.75 29.101563 L 16.660156 22.578125 Z M 16.664063 22.578125 "/>
<path style=" stroke:none;fill-rule:nonzero;fill:rgb(4.998779%,4.998779%,4.998779%);fill-opacity:1;" d="M 23.082031 16.46875 L 23.082031 29.101563 L 26.046875 29.101563 L 26.046875 16.46875 Z M 23.082031 16.46875 "/>
<path style=" stroke:none;fill-rule:nonzero;fill:rgb(4.998779%,4.998779%,4.998779%);fill-opacity:1;" d="M 36.96875 16.464844 L 33.976563 25.953125 L 30.832031 16.464844 L 27.507813 16.464844 L 32.46875 28.867188 C 32.246094 29.597656 31.980469 30.082031 31.675781 30.3125 C 31.367188 30.539063 30.898438 30.65625 30.269531 30.65625 C 29.839844 30.65625 29.535156 30.652344 29.347656 30.644531 C 29.15625 30.636719 28.996094 30.613281 28.863281 30.582031 L 28.863281 33.0625 C 29.132813 33.113281 29.449219 33.152344 29.808594 33.1875 C 30.164063 33.222656 30.515625 33.238281 30.855469 33.238281 C 31.980469 33.238281 32.886719 32.964844 33.578125 32.421875 C 34.269531 31.875 34.851563 30.953125 35.328125 29.660156 L 40.164063 16.464844 L 36.964844 16.464844 Z M 36.96875 16.464844 "/>
<path style=" stroke:none;fill-rule:nonzero;fill:rgb(4.998779%,4.998779%,4.998779%);fill-opacity:1;" d="M 50.035156 17.273438 C 49.265625 16.566406 48.109375 16.210938 46.558594 16.210938 C 45.515625 16.210938 44.617188 16.25 43.859375 16.324219 C 43.101563 16.402344 42.398438 16.519531 41.75 16.671875 L 41.75 19.152344 C 42.3125 19.035156 42.90625 18.949219 43.527344 18.898438 C 44.152344 18.84375 44.863281 18.820313 45.664063 18.820313 C 46.550781 18.820313 47.195313 18.972656 47.605469 19.28125 C 48.015625 19.585938 48.21875 20.074219 48.21875 20.738281 L 48.21875 21.8125 C 47.84375 21.726563 47.402344 21.660156 46.890625 21.609375 C 46.378906 21.554688 45.875 21.53125 45.382813 21.53125 C 43.609375 21.53125 42.359375 21.820313 41.632813 22.398438 C 40.910156 22.980469 40.546875 23.96875 40.546875 25.367188 C 40.546875 26.761719 40.851563 27.730469 41.457031 28.371094 C 42.058594 29.011719 43.011719 29.328125 44.308594 29.328125 C 44.988281 29.328125 45.683594 29.207031 46.390625 28.957031 C 47.097656 28.714844 47.726563 28.382813 48.269531 27.976563 L 48.320313 27.976563 L 48.449219 29.101563 L 51.183594 29.101563 L 51.183594 20.457031 C 51.183594 19.039063 50.800781 17.980469 50.035156 17.273438 Z M 48.21875 26.03125 C 47.808594 26.253906 47.328125 26.4375 46.777344 26.582031 C 46.21875 26.722656 45.695313 26.796875 45.199219 26.796875 C 44.519531 26.796875 44.039063 26.671875 43.757813 26.425781 C 43.476563 26.179688 43.332031 25.765625 43.332031 25.1875 C 43.332031 24.609375 43.507813 24.1875 43.84375 23.972656 C 44.1875 23.761719 44.816406 23.652344 45.738281 23.652344 C 46.183594 23.652344 46.601563 23.667969 47.003906 23.703125 C 47.40625 23.738281 47.808594 23.789063 48.21875 23.855469 Z M 48.21875 26.03125 "/>
<path style=" stroke:none;fill-rule:nonzero;fill:rgb(4.998779%,4.998779%,4.998779%);fill-opacity:1;" d="M 62.003906 12.09375 L 62.003906 16.644531 C 61.625 16.511719 61.195313 16.40625 60.710938 16.328125 C 60.222656 16.25 59.707031 16.210938 59.164063 16.210938 C 57.097656 16.210938 55.621094 16.726563 54.726563 17.761719 C 53.832031 18.789063 53.386719 20.457031 53.386719 22.757813 C 53.386719 25.058594 53.746094 26.773438 54.472656 27.796875 C 55.195313 28.820313 56.402344 29.328125 58.089844 29.328125 C 58.941406 29.328125 59.695313 29.214844 60.351563 28.984375 C 61.007813 28.753906 61.574219 28.402344 62.054688 27.921875 L 62.183594 27.921875 L 62.363281 29.097656 L 64.96875 29.097656 L 64.96875 12.09375 Z M 62.003906 25.902344 C 61.609375 26.125 61.175781 26.292969 60.699219 26.402344 C 60.21875 26.511719 59.707031 26.570313 59.164063 26.570313 C 58.023438 26.570313 57.265625 26.304688 56.898438 25.777344 C 56.535156 25.246094 56.351563 24.242188 56.351563 22.757813 C 56.351563 21.273438 56.5625 20.191406 56.976563 19.664063 C 57.394531 19.136719 58.257813 18.871094 59.574219 18.871094 C 60.050781 18.871094 60.484375 18.90625 60.878906 18.972656 C 61.269531 19.042969 61.644531 19.152344 62.003906 19.304688 Z M 62.003906 25.902344 "/>
<path style=" stroke:none;fill-rule:nonzero;fill:rgb(4.998779%,4.998779%,4.998779%);fill-opacity:1;" d="M 77.960938 17.683594 C 77.054688 16.703125 75.496094 16.210938 73.277344 16.210938 C 71.0625 16.210938 69.519531 16.710938 68.597656 17.707031 C 67.679688 18.703125 67.21875 20.386719 67.21875 22.757813 C 67.21875 25.125 67.671875 26.878906 68.574219 27.859375 C 69.476563 28.839844 71.046875 29.328125 73.277344 29.328125 C 75.511719 29.328125 77.035156 28.832031 77.945313 27.832031 C 78.859375 26.835938 79.316406 25.144531 79.316406 22.757813 C 79.316406 20.371094 78.863281 18.660156 77.960938 17.683594 Z M 75.746094 25.8125 C 75.34375 26.316406 74.523438 26.570313 73.277344 26.570313 C 72.035156 26.570313 71.164063 26.320313 70.773438 25.828125 C 70.382813 25.332031 70.183594 24.300781 70.183594 22.734375 C 70.183594 21.164063 70.386719 20.148438 70.789063 19.636719 C 71.1875 19.125 72.019531 18.871094 73.28125 18.871094 C 74.539063 18.871094 75.390625 19.117188 75.773438 19.613281 C 76.160156 20.109375 76.347656 21.148438 76.347656 22.734375 C 76.347656 24.320313 76.148438 25.3125 75.75 25.8125 Z M 75.746094 25.8125 "/>
<path style=" stroke:none;fill-rule:nonzero;fill:rgb(4.998779%,4.998779%,4.998779%);fill-opacity:1;" d="M 86.785156 12.578125 L 86.359375 16.144531 L 83.976563 18.53125 L 83.230469 12.164063 Z M 86.785156 12.578125 "/>
<path style=" stroke:none;fill-rule:nonzero;fill:rgb(4.998779%,4.998779%,4.998779%);fill-opacity:1;" d="M 75.742188 10.296875 L 78.128906 7.914063 L 82.671875 7.375 L 86.898438 11.601563 Z M 75.742188 10.296875 "/>
<path style=" stroke:none;fill-rule:nonzero;fill:rgb(4.998779%,4.998779%,4.998779%);fill-opacity:1;" d="M 87.464844 6.804688 L 87.046875 10.351563 L 83.917969 7.222656 Z M 87.464844 6.804688 "/>
<path style=" stroke:none;fill-rule:nonzero;fill:rgb(4.998779%,4.998779%,4.998779%);fill-opacity:1;" d="M 42.015625 39.671875 C 41.484375 39.671875 41.09375 39.542969 40.847656 39.289063 C 40.601563 39.03125 40.476563 38.628906 40.476563 38.078125 C 40.476563 37.527344 40.625 37.125 40.925781 36.890625 C 41.226563 36.65625 41.738281 36.539063 42.457031 36.539063 C 42.691406 36.539063 42.925781 36.550781 43.15625 36.570313 C 43.386719 36.59375 43.605469 36.625 43.804688 36.664063 L 43.804688 36.164063 C 43.804688 35.777344 43.707031 35.503906 43.511719 35.335938 C 43.316406 35.167969 43.003906 35.082031 42.570313 35.082031 C 42.25 35.082031 41.964844 35.09375 41.722656 35.121094 C 41.476563 35.144531 41.234375 35.183594 40.988281 35.242188 L 40.988281 34.496094 C 41.265625 34.425781 41.550781 34.378906 41.839844 34.351563 C 42.132813 34.324219 42.460938 34.308594 42.832031 34.308594 C 43.453125 34.308594 43.914063 34.453125 44.214844 34.742188 C 44.515625 35.03125 44.664063 35.480469 44.664063 36.089844 L 44.664063 39.585938 L 43.878906 39.585938 L 43.835938 39.105469 L 43.816406 39.105469 C 43.605469 39.273438 43.335938 39.410156 43.003906 39.511719 C 42.671875 39.617188 42.34375 39.671875 42.015625 39.671875 Z M 42.550781 37.242188 C 42.074219 37.242188 41.746094 37.296875 41.558594 37.414063 C 41.375 37.527344 41.28125 37.734375 41.28125 38.027344 C 41.28125 38.320313 41.359375 38.554688 41.511719 38.691406 C 41.667969 38.828125 41.917969 38.894531 42.265625 38.894531 C 42.539063 38.894531 42.820313 38.855469 43.105469 38.769531 C 43.390625 38.6875 43.625 38.582031 43.808594 38.457031 L 43.808594 37.347656 C 43.578125 37.3125 43.363281 37.285156 43.164063 37.265625 C 42.964844 37.25 42.761719 37.242188 42.550781 37.242188 Z M 42.550781 37.242188 "/>
<path style=" stroke:none;fill-rule:nonzero;fill:rgb(4.998779%,4.998779%,4.998779%);fill-opacity:1;" d="M 49.617188 38.558594 L 49.617188 39.28125 C 49.441406 39.394531 49.183594 39.488281 48.835938 39.558594 C 48.492188 39.632813 48.128906 39.671875 47.753906 39.671875 C 47.019531 39.671875 46.503906 39.472656 46.207031 39.074219 C 45.914063 38.675781 45.765625 37.980469 45.765625 36.988281 C 45.765625 35.996094 45.957031 35.328125 46.339844 34.921875 C 46.722656 34.511719 47.375 34.308594 48.296875 34.308594 C 48.5 34.308594 48.683594 34.3125 48.847656 34.324219 C 49.011719 34.335938 49.222656 34.355469 49.480469 34.394531 L 49.480469 35.15625 C 49.222656 35.121094 49.011719 35.101563 48.847656 35.09375 C 48.683594 35.085938 48.5 35.085938 48.296875 35.085938 C 47.640625 35.085938 47.199219 35.21875 46.96875 35.488281 C 46.738281 35.753906 46.621094 36.257813 46.621094 36.988281 C 46.621094 37.722656 46.714844 38.21875 46.894531 38.480469 C 47.078125 38.746094 47.425781 38.875 47.941406 38.875 C 48.226563 38.875 48.523438 38.84375 48.832031 38.785156 C 49.140625 38.726563 49.402344 38.652344 49.617188 38.558594 Z M 49.617188 38.558594 "/>
<path style=" stroke:none;fill-rule:nonzero;fill:rgb(4.998779%,4.998779%,4.998779%);fill-opacity:1;" d="M 51.773438 39.671875 C 51.242188 39.671875 50.855469 39.542969 50.605469 39.289063 C 50.359375 39.03125 50.234375 38.628906 50.234375 38.078125 C 50.234375 37.527344 50.386719 37.125 50.6875 36.890625 C 50.984375 36.65625 51.496094 36.539063 52.214844 36.539063 C 52.453125 36.539063 52.6875 36.550781 52.917969 36.570313 C 53.148438 36.59375 53.363281 36.625 53.566406 36.664063 L 53.566406 36.164063 C 53.566406 35.777344 53.46875 35.503906 53.273438 35.335938 C 53.078125 35.167969 52.761719 35.082031 52.328125 35.082031 C 52.007813 35.082031 51.726563 35.09375 51.480469 35.121094 C 51.238281 35.144531 50.992188 35.183594 50.746094 35.242188 L 50.746094 34.496094 C 51.027344 34.425781 51.3125 34.378906 51.601563 34.351563 C 51.890625 34.324219 52.21875 34.308594 52.589844 34.308594 C 53.210938 34.308594 53.671875 34.453125 53.972656 34.742188 C 54.273438 35.03125 54.421875 35.480469 54.421875 36.089844 L 54.421875 39.585938 L 53.636719 39.585938 L 53.597656 39.105469 L 53.574219 39.105469 C 53.367188 39.273438 53.09375 39.410156 52.765625 39.511719 C 52.433594 39.617188 52.101563 39.671875 51.773438 39.671875 Z M 52.308594 37.242188 C 51.835938 37.242188 51.503906 37.296875 51.320313 37.414063 C 51.132813 37.527344 51.042969 37.734375 51.042969 38.027344 C 51.042969 38.320313 51.117188 38.554688 51.273438 38.691406 C 51.425781 38.828125 51.675781 38.894531 52.027344 38.894531 C 52.300781 38.894531 52.578125 38.855469 52.863281 38.769531 C 53.152344 38.6875 53.382813 38.582031 53.566406 38.457031 L 53.566406 37.347656 C 53.335938 37.3125 53.121094 37.285156 52.921875 37.265625 C 52.722656 37.25 52.519531 37.242188 52.308594 37.242188 Z M 52.308594 37.242188 "/>
<path style=" stroke:none;fill-rule:nonzero;fill:rgb(4.998779%,4.998779%,4.998779%);fill-opacity:1;" d="M 59.1875 32.621094 L 60.046875 32.621094 L 60.046875 39.585938 L 59.304688 39.585938 L 59.242188 39.105469 L 59.21875 39.105469 C 59.015625 39.292969 58.769531 39.433594 58.480469 39.527344 C 58.191406 39.621094 57.859375 39.671875 57.480469 39.671875 C 56.777344 39.671875 56.273438 39.460938 55.96875 39.042969 C 55.664063 38.621094 55.511719 37.9375 55.511719 36.988281 C 55.511719 36.042969 55.699219 35.355469 56.066406 34.9375 C 56.4375 34.519531 57.054688 34.308594 57.921875 34.308594 C 58.164063 34.308594 58.394531 34.328125 58.605469 34.367188 C 58.820313 34.40625 59.015625 34.460938 59.1875 34.53125 Z M 58.027344 35.082031 C 57.378906 35.082031 56.9375 35.21875 56.710938 35.492188 C 56.484375 35.765625 56.371094 36.261719 56.371094 36.988281 C 56.371094 37.714844 56.472656 38.183594 56.671875 38.460938 C 56.867188 38.738281 57.242188 38.875 57.785156 38.875 C 58.042969 38.875 58.292969 38.839844 58.53125 38.773438 C 58.765625 38.707031 58.988281 38.609375 59.1875 38.476563 L 59.1875 35.292969 C 59.023438 35.222656 58.84375 35.171875 58.65625 35.136719 C 58.464844 35.101563 58.257813 35.082031 58.027344 35.082031 Z M 58.027344 35.082031 "/>
<path style=" stroke:none;fill-rule:nonzero;fill:rgb(4.998779%,4.998779%,4.998779%);fill-opacity:1;" d="M 65.3125 38.582031 L 65.3125 39.304688 C 65.132813 39.402344 64.867188 39.488281 64.511719 39.558594 C 64.160156 39.632813 63.800781 39.671875 63.441406 39.671875 C 62.628906 39.671875 62.050781 39.460938 61.703125 39.042969 C 61.351563 38.621094 61.179688 37.933594 61.179688 36.96875 C 61.179688 36.003906 61.359375 35.363281 61.722656 34.941406 C 62.085938 34.519531 62.664063 34.308594 63.460938 34.308594 C 64.199219 34.308594 64.730469 34.472656 65.050781 34.804688 C 65.375 35.136719 65.535156 35.691406 65.535156 36.464844 C 65.535156 36.605469 65.53125 36.734375 65.523438 36.851563 C 65.515625 36.972656 65.503906 37.117188 65.480469 37.28125 L 62.046875 37.28125 C 62.054688 37.855469 62.171875 38.261719 62.398438 38.507813 C 62.625 38.753906 63.015625 38.875 63.574219 38.875 C 63.875 38.875 64.191406 38.847656 64.519531 38.792969 C 64.847656 38.734375 65.113281 38.664063 65.3125 38.582031 Z M 64.75 36.351563 C 64.742188 35.890625 64.640625 35.5625 64.445313 35.371094 C 64.25 35.179688 63.921875 35.082031 63.460938 35.082031 C 62.945313 35.082031 62.578125 35.191406 62.367188 35.414063 C 62.152344 35.632813 62.046875 36.019531 62.046875 36.570313 L 64.738281 36.570313 C 64.738281 36.554688 64.742188 36.523438 64.746094 36.46875 C 64.746094 36.417969 64.75 36.378906 64.75 36.347656 Z M 64.75 36.351563 "/>
<path style=" stroke:none;fill-rule:nonzero;fill:rgb(4.998779%,4.998779%,4.998779%);fill-opacity:1;" d="M 67.503906 39.589844 L 66.644531 39.589844 L 66.644531 34.417969 L 67.429688 34.417969 L 67.472656 34.816406 L 67.503906 34.816406 C 67.808594 34.640625 68.089844 34.515625 68.339844 34.433594 C 68.59375 34.351563 68.84375 34.3125 69.09375 34.3125 C 69.390625 34.3125 69.640625 34.359375 69.847656 34.449219 C 70.058594 34.539063 70.222656 34.675781 70.339844 34.855469 L 70.371094 34.855469 C 70.652344 34.683594 70.945313 34.546875 71.257813 34.453125 C 71.566406 34.359375 71.878906 34.3125 72.195313 34.3125 C 72.691406 34.3125 73.066406 34.445313 73.320313 34.703125 C 73.574219 34.96875 73.703125 35.351563 73.703125 35.863281 L 73.703125 39.589844 L 72.84375 39.589844 L 72.84375 35.964844 C 72.84375 35.667969 72.761719 35.445313 72.601563 35.300781 C 72.441406 35.160156 72.1875 35.085938 71.839844 35.085938 C 71.644531 35.085938 71.4375 35.117188 71.21875 35.175781 C 71.003906 35.234375 70.789063 35.320313 70.570313 35.433594 C 70.585938 35.503906 70.59375 35.574219 70.597656 35.640625 C 70.601563 35.710938 70.601563 35.785156 70.601563 35.863281 L 70.601563 39.589844 L 69.742188 39.589844 L 69.742188 35.964844 C 69.742188 35.664063 69.664063 35.445313 69.503906 35.300781 C 69.34375 35.15625 69.085938 35.085938 68.738281 35.085938 C 68.5625 35.085938 68.378906 35.117188 68.183594 35.175781 C 67.988281 35.234375 67.761719 35.335938 67.503906 35.472656 Z M 67.503906 39.589844 "/>
<path style=" stroke:none;fill-rule:nonzero;fill:rgb(4.998779%,4.998779%,4.998779%);fill-opacity:1;" d="M 75.410156 40.515625 C 75.675781 40.515625 75.875 40.457031 76.011719 40.34375 C 76.148438 40.226563 76.292969 39.953125 76.445313 39.519531 L 74.328125 34.421875 L 75.292969 34.421875 L 76.882813 38.660156 L 78.390625 34.421875 L 79.3125 34.421875 L 77.199219 39.9375 C 77.011719 40.441406 76.789063 40.792969 76.539063 40.992188 C 76.289063 41.191406 75.964844 41.289063 75.566406 41.289063 C 75.445313 41.289063 75.320313 41.28125 75.195313 41.269531 C 75.0625 41.253906 74.9375 41.238281 74.8125 41.21875 L 74.8125 40.460938 C 74.886719 40.484375 74.972656 40.496094 75.066406 40.503906 C 75.164063 40.511719 75.277344 40.515625 75.410156 40.515625 Z M 75.410156 40.515625 "/>
<path style=" stroke:none;fill-rule:nonzero;fill:rgb(4.998779%,4.998779%,4.998779%);fill-opacity:1;" d="M 37.417969 36.96875 L 10.144531 36.96875 L 10.144531 37.351563 L 37.417969 37.351563 Z M 37.417969 36.96875 "/>
</g>
</svg>
